<svg width="375" height="48" viewBox="0 0 375 48" fill="none" xmlns="http://www.w3.org/2000/svg">
<path d="M0.896 47.024V46.064C2.176 45.936 3.264 45.552 4.16 44.912C5.056 44.304 5.744 43.248 6.224 41.744C6.704 40.24 6.944 38.128 6.944 35.408V9.104C6.944 7.92 6.848 7.056 6.656 6.512C6.496 5.936 6.16 5.552 5.648 5.36C5.136 5.136 4.368 5.008 3.344 4.976V4.016C4.144 4.048 5.184 4.08 6.464 4.112C7.776 4.144 9.152 4.16 10.592 4.16C12.032 4.16 13.424 4.144 14.768 4.112C16.144 4.08 17.28 4.048 18.176 4.016V4.976C17.184 5.008 16.416 5.136 15.872 5.36C15.36 5.552 15.008 5.936 14.816 6.512C14.656 7.056 14.576 7.92 14.576 9.104V26.672C14.576 27.984 14.576 29.408 14.576 30.944C14.576 32.448 14.512 33.92 14.384 35.36C14.288 36.8 14.08 38.08 13.76 39.2C13.12 41.408 11.728 43.264 9.584 44.768C7.472 46.272 4.576 47.024 0.896 47.024ZM29.8179 0.463997V16.976C30.6179 15.312 31.6899 14.16 33.0339 13.52C34.4099 12.848 35.9459 12.512 37.6419 12.512C39.0179 12.512 40.1219 12.688 40.9539 13.04C41.7859 13.36 42.4419 13.808 42.9219 14.384C43.4659 14.992 43.8499 15.776 44.0739 16.736C44.3299 17.696 44.4579 18.992 44.4579 20.624V33.536C44.4579 34.88 44.6819 35.792 45.1299 36.272C45.6099 36.752 46.4099 36.992 47.5299 36.992V38C46.9219 37.968 45.9939 37.936 44.7459 37.904C43.5299 37.84 42.3459 37.808 41.1939 37.808C39.9459 37.808 38.7299 37.84 37.5459 37.904C36.3939 37.936 35.5299 37.968 34.9539 38V36.992C35.9139 36.992 36.5859 36.752 36.9699 36.272C37.3539 35.792 37.5459 34.88 37.5459 33.536V18.608C37.5459 17.808 37.4659 17.12 37.3059 16.544C37.1459 15.936 36.8419 15.472 36.3939 15.152C35.9779 14.8 35.3699 14.624 34.5699 14.624C33.7059 14.624 32.9059 14.864 32.1699 15.344C31.4659 15.792 30.8899 16.432 30.4419 17.264C30.0259 18.096 29.8179 19.056 29.8179 20.144V33.536C29.8179 34.88 30.0099 35.792 30.3939 36.272C30.7779 36.752 31.4499 36.992 32.4099 36.992V38C31.8339 37.968 30.9859 37.936 29.8659 37.904C28.7459 37.84 27.6099 37.808 26.4579 37.808C25.2099 37.808 23.9459 37.84 22.6659 37.904C21.4179 37.936 20.4739 37.968 19.8339 38V36.992C20.9539 36.992 21.7379 36.752 22.1859 36.272C22.6659 35.792 22.9059 34.88 22.9059 33.536V6.224C22.9059 4.784 22.6819 3.728 22.2339 3.056C21.8179 2.352 21.0179 2 19.8339 2V0.991999C20.8579 1.088 21.8499 1.136 22.8099 1.136C24.1219 1.136 25.3699 1.088 26.5539 0.991999C27.7379 0.863998 28.8259 0.687998 29.8179 0.463997ZM61.661 12.512C64.477 12.512 66.685 13.344 68.285 15.008C69.885 16.672 70.685 19.392 70.685 23.168H54.893L54.797 22.256H64.637C64.669 20.688 64.573 19.248 64.349 17.936C64.125 16.592 63.773 15.52 63.293 14.72C62.813 13.92 62.173 13.52 61.373 13.52C60.253 13.52 59.293 14.224 58.493 15.632C57.725 17.04 57.261 19.376 57.101 22.64L57.245 22.928C57.213 23.312 57.181 23.712 57.149 24.128C57.149 24.544 57.149 24.976 57.149 25.424C57.149 27.632 57.453 29.424 58.061 30.8C58.701 32.176 59.501 33.184 60.461 33.824C61.421 34.432 62.397 34.736 63.389 34.736C64.061 34.736 64.749 34.64 65.453 34.448C66.189 34.224 66.925 33.84 67.661 33.296C68.397 32.72 69.085 31.92 69.725 30.896L70.589 31.184C70.205 32.4 69.597 33.584 68.765 34.736C67.933 35.888 66.877 36.832 65.597 37.568C64.317 38.304 62.781 38.672 60.989 38.672C58.813 38.672 56.893 38.208 55.229 37.28C53.565 36.352 52.253 34.944 51.293 33.056C50.365 31.168 49.901 28.768 49.901 25.856C49.901 22.88 50.397 20.4 51.389 18.416C52.413 16.432 53.805 14.96 55.565 14C57.357 13.008 59.389 12.512 61.661 12.512ZM86.1365 0.463997C87.2565 0.463997 88.2325 0.607997 89.0645 0.895997C89.8965 1.184 90.6325 1.568 91.2725 2.048C91.7205 2.4 92.1045 2.896 92.4245 3.536C92.7445 4.144 92.9045 4.848 92.9045 5.648C92.9045 6.512 92.5845 7.28 91.9445 7.952C91.3365 8.624 90.5205 8.96 89.4965 8.96C88.4405 8.96 87.5605 8.656 86.8565 8.048C86.1845 7.44 85.8485 6.608 85.8485 5.552C85.8485 4.72 86.0885 3.984 86.5685 3.344C87.0485 2.704 87.7525 2.256 88.6805 2C88.5845 1.808 88.3925 1.648 88.1045 1.52C87.8165 1.392 87.4325 1.328 86.9525 1.328C86.3125 1.328 85.7845 1.44 85.3685 1.664C84.9525 1.888 84.6165 2.192 84.3605 2.576C84.0085 3.056 83.7685 3.76 83.6405 4.688C83.5125 5.584 83.4485 6.976 83.4485 8.864V13.232H88.5845V14.192H83.4485V33.056C83.4485 34.624 83.8485 35.68 84.6485 36.224C85.4485 36.736 86.5525 36.992 87.9605 36.992V38C87.1285 37.968 85.9605 37.936 84.4565 37.904C82.9525 37.84 81.3685 37.808 79.7045 37.808C78.4885 37.808 77.2885 37.84 76.1045 37.904C74.9525 37.936 74.0725 37.968 73.4645 38V36.992C74.5845 36.992 75.3685 36.752 75.8165 36.272C76.2965 35.792 76.5365 34.88 76.5365 33.536V14.192H73.2725V13.232H76.5365C76.5365 11.344 76.6325 9.776 76.8245 8.528C77.0165 7.248 77.3365 6.16 77.7845 5.264C78.2325 4.368 78.8245 3.568 79.5605 2.864C80.2645 2.192 81.1925 1.632 82.3445 1.184C83.5285 0.703998 84.7925 0.463997 86.1365 0.463997ZM101.88 12.512C104.696 12.512 106.904 13.344 108.504 15.008C110.104 16.672 110.904 19.392 110.904 23.168H95.1118L95.0158 22.256H104.856C104.888 20.688 104.792 19.248 104.568 17.936C104.344 16.592 103.992 15.52 103.512 14.72C103.032 13.92 102.392 13.52 101.592 13.52C100.472 13.52 99.5118 14.224 98.7118 15.632C97.9438 17.04 97.4798 19.376 97.3198 22.64L97.4638 22.928C97.4318 23.312 97.3998 23.712 97.3678 24.128C97.3678 24.544 97.3678 24.976 97.3678 25.424C97.3678 27.632 97.6718 29.424 98.2798 30.8C98.9198 32.176 99.7198 33.184 100.68 33.824C101.64 34.432 102.616 34.736 103.608 34.736C104.28 34.736 104.968 34.64 105.672 34.448C106.408 34.224 107.144 33.84 107.88 33.296C108.616 32.72 109.304 31.92 109.944 30.896L110.808 31.184C110.424 32.4 109.816 33.584 108.984 34.736C108.152 35.888 107.096 36.832 105.816 37.568C104.536 38.304 103 38.672 101.208 38.672C99.0318 38.672 97.1118 38.208 95.4478 37.28C93.7838 36.352 92.4718 34.944 91.5117 33.056C90.5838 31.168 90.1198 28.768 90.1198 25.856C90.1198 22.88 90.6158 20.4 91.6078 18.416C92.6318 16.432 94.0238 14.96 95.7838 14C97.5758 13.008 99.6078 12.512 101.88 12.512ZM129.914 12.512C130.938 12.512 131.77 12.736 132.41 13.184C133.05 13.6 133.514 14.144 133.802 14.816C134.122 15.488 134.282 16.192 134.282 16.928C134.282 18.112 133.93 19.088 133.226 19.856C132.554 20.592 131.658 20.96 130.538 20.96C129.418 20.96 128.538 20.688 127.898 20.144C127.29 19.568 126.986 18.816 126.986 17.888C126.986 16.992 127.178 16.256 127.562 15.68C127.978 15.072 128.49 14.56 129.098 14.144C128.65 14.016 128.202 14.032 127.754 14.192C127.146 14.288 126.57 14.544 126.026 14.96C125.482 15.344 125.018 15.84 124.634 16.448C124.25 17.024 123.946 17.664 123.722 18.368C123.498 19.04 123.386 19.696 123.386 20.336V33.056C123.386 34.592 123.754 35.632 124.49 36.176C125.258 36.72 126.394 36.992 127.898 36.992V38C127.162 37.968 126.09 37.936 124.682 37.904C123.274 37.84 121.802 37.808 120.266 37.808C118.986 37.808 117.69 37.84 116.378 37.904C115.066 37.936 114.074 37.968 113.402 38V36.992C114.522 36.992 115.306 36.752 115.754 36.272C116.234 35.792 116.474 34.88 116.474 33.536V18.416C116.474 16.976 116.25 15.92 115.802 15.248C115.386 14.544 114.586 14.192 113.402 14.192V13.184C114.426 13.28 115.418 13.328 116.378 13.328C117.722 13.328 118.97 13.28 120.122 13.184C121.306 13.056 122.394 12.88 123.386 12.656V17.12C123.77 16.256 124.282 15.472 124.922 14.768C125.562 14.064 126.298 13.52 127.13 13.136C127.962 12.72 128.89 12.512 129.914 12.512ZM145.312 12.512C146.656 12.512 147.824 12.688 148.816 13.04C149.84 13.36 150.576 13.68 151.024 14C152.112 14.736 152.784 14.256 153.04 12.56H154.048C153.984 13.456 153.936 14.56 153.904 15.872C153.872 17.152 153.856 18.864 153.856 21.008H152.848C152.688 19.824 152.384 18.656 151.936 17.504C151.488 16.352 150.832 15.408 149.968 14.672C149.136 13.936 148.048 13.568 146.704 13.568C145.776 13.568 144.992 13.84 144.352 14.384C143.712 14.896 143.392 15.648 143.392 16.64C143.392 17.6 143.68 18.448 144.256 19.184C144.832 19.888 145.568 20.576 146.464 21.248C147.392 21.888 148.352 22.576 149.344 23.312C150.4 24.112 151.36 24.912 152.224 25.712C153.088 26.48 153.776 27.328 154.288 28.256C154.8 29.184 155.056 30.288 155.056 31.568C155.056 33.008 154.64 34.272 153.808 35.36C152.976 36.416 151.872 37.232 150.496 37.808C149.152 38.384 147.648 38.672 145.984 38.672C145.024 38.672 144.16 38.576 143.392 38.384C142.656 38.192 142.016 37.952 141.472 37.664C141.056 37.472 140.656 37.296 140.272 37.136C139.92 36.944 139.584 36.784 139.264 36.656C138.944 36.56 138.656 36.672 138.4 36.992C138.176 37.312 138 37.76 137.872 38.336H136.864C136.928 37.312 136.976 36.064 137.008 34.592C137.04 33.12 137.056 31.168 137.056 28.736H138.064C138.256 30.464 138.608 32 139.12 33.344C139.632 34.656 140.32 35.696 141.184 36.464C142.08 37.2 143.2 37.568 144.544 37.568C145.088 37.568 145.616 37.456 146.128 37.232C146.64 37.008 147.056 36.64 147.376 36.128C147.728 35.616 147.904 34.96 147.904 34.16C147.904 32.752 147.44 31.584 146.512 30.656C145.616 29.728 144.464 28.72 143.056 27.632C142.032 26.8 141.056 25.984 140.128 25.184C139.232 24.352 138.496 23.456 137.92 22.496C137.344 21.504 137.056 20.384 137.056 19.136C137.056 17.696 137.44 16.48 138.208 15.488C138.976 14.496 139.984 13.76 141.232 13.28C142.512 12.768 143.872 12.512 145.312 12.512ZM170.364 12.512C172.7 12.512 174.748 12.944 176.508 13.808C178.268 14.672 179.644 16.064 180.636 17.984C181.628 19.904 182.124 22.448 182.124 25.616C182.124 28.784 181.628 31.328 180.636 33.248C179.644 35.136 178.268 36.512 176.508 37.376C174.748 38.24 172.7 38.672 170.364 38.672C168.092 38.672 166.06 38.24 164.268 37.376C162.508 36.512 161.116 35.136 160.092 33.248C159.1 31.328 158.604 28.784 158.604 25.616C158.604 22.448 159.1 19.904 160.092 17.984C161.116 16.064 162.508 14.672 164.268 13.808C166.06 12.944 168.092 12.512 170.364 12.512ZM170.364 13.472C169.084 13.472 168.012 14.432 167.148 16.352C166.284 18.24 165.852 21.328 165.852 25.616C165.852 29.904 166.284 32.992 167.148 34.88C168.012 36.768 169.084 37.712 170.364 37.712C171.676 37.712 172.748 36.768 173.58 34.88C174.444 32.992 174.876 29.904 174.876 25.616C174.876 21.328 174.444 18.24 173.58 16.352C172.748 14.432 171.676 13.472 170.364 13.472ZM202.977 12.512C204.321 12.512 205.409 12.688 206.241 13.04C207.105 13.36 207.777 13.808 208.257 14.384C208.769 14.992 209.137 15.776 209.361 16.736C209.617 17.696 209.745 18.992 209.745 20.624V33.536C209.745 34.88 209.969 35.792 210.417 36.272C210.897 36.752 211.697 36.992 212.817 36.992V38C212.209 37.968 211.297 37.936 210.081 37.904C208.865 37.84 207.665 37.808 206.481 37.808C205.265 37.808 204.065 37.84 202.881 37.904C201.729 37.936 200.849 37.968 200.241 38V36.992C201.201 36.992 201.873 36.752 202.257 36.272C202.641 35.792 202.833 34.88 202.833 33.536V18.608C202.833 17.808 202.753 17.12 202.593 16.544C202.433 15.936 202.145 15.472 201.729 15.152C201.313 14.8 200.689 14.624 199.857 14.624C198.993 14.624 198.193 14.864 197.457 15.344C196.753 15.824 196.177 16.496 195.729 17.36C195.313 18.192 195.105 19.136 195.105 20.192V33.536C195.105 34.88 195.297 35.792 195.681 36.272C196.097 36.752 196.769 36.992 197.697 36.992V38C197.121 37.968 196.273 37.936 195.153 37.904C194.065 37.84 192.929 37.808 191.745 37.808C190.529 37.808 189.281 37.84 188.001 37.904C186.721 37.936 185.761 37.968 185.121 38V36.992C186.241 36.992 187.025 36.752 187.473 36.272C187.953 35.792 188.193 34.88 188.193 33.536V18.416C188.193 16.976 187.969 15.92 187.521 15.248C187.105 14.544 186.305 14.192 185.121 14.192V13.184C186.145 13.28 187.137 13.328 188.097 13.328C189.441 13.328 190.689 13.28 191.841 13.184C193.025 13.056 194.113 12.88 195.105 12.656V16.976C195.905 15.344 196.993 14.192 198.369 13.52C199.745 12.848 201.281 12.512 202.977 12.512ZM269.627 4.016V4.976C268.923 5.232 268.187 5.792 267.419 6.656C266.651 7.488 265.979 8.832 265.403 10.688L256.955 38.096C256.699 38.064 256.427 38.048 256.139 38.048C255.851 38.048 255.563 38.048 255.275 38.048C254.987 38.048 254.699 38.048 254.411 38.048C254.123 38.048 253.851 38.064 253.595 38.096L243.515 7.568C243.195 6.576 242.795 5.904 242.315 5.552C241.867 5.2 241.387 5.008 240.875 4.976V4.016C241.771 4.048 242.827 4.08 244.043 4.112C245.291 4.144 246.523 4.16 247.739 4.16C249.147 4.16 250.459 4.144 251.675 4.112C252.923 4.08 253.915 4.048 254.651 4.016V4.976C253.691 5.008 252.923 5.12 252.347 5.312C251.803 5.504 251.483 5.872 251.387 6.416C251.323 6.96 251.483 7.824 251.867 9.008L258.683 29.84L257.579 31.808L263.003 14.576C263.771 12.144 264.139 10.24 264.107 8.864C264.075 7.488 263.707 6.512 263.003 5.936C262.299 5.328 261.291 5.008 259.979 4.976V4.016C261.067 4.048 262.091 4.08 263.051 4.112C264.011 4.144 264.971 4.16 265.931 4.16C266.667 4.16 267.339 4.144 267.947 4.112C268.587 4.08 269.147 4.048 269.627 4.016ZM235.355 4.016V4.976C234.715 5.072 234.267 5.312 234.011 5.696C233.755 6.048 233.643 6.528 233.675 7.136C233.739 7.712 233.883 8.336 234.107 9.008L241.451 30.32L240.155 32.048L246.299 14.096L246.971 15.392L239.435 38.096C239.179 38.064 238.907 38.048 238.619 38.048C238.331 38.048 238.043 38.048 237.755 38.048C237.467 38.048 237.179 38.048 236.891 38.048C236.603 38.048 236.331 38.064 236.075 38.096L225.323 8.048C224.907 6.864 224.411 6.064 223.835 5.648C223.291 5.232 222.779 5.008 222.299 4.976V4.016C223.259 4.048 224.395 4.08 225.707 4.112C227.019 4.144 228.267 4.16 229.451 4.16C230.731 4.16 231.867 4.144 232.859 4.112C233.883 4.08 234.715 4.048 235.355 4.016ZM273.87 38.336C272.43 38.336 271.23 38.064 270.27 37.52C269.31 36.976 268.606 36.256 268.158 35.36C267.71 34.432 267.486 33.424 267.486 32.336C267.486 30.96 267.79 29.84 268.398 28.976C269.038 28.112 269.854 27.408 270.846 26.864C271.838 26.32 272.878 25.872 273.966 25.52C275.086 25.168 276.142 24.832 277.134 24.512C278.158 24.16 278.974 23.76 279.582 23.312C280.222 22.832 280.542 22.224 280.542 21.488V17.744C280.542 16.912 280.398 16.176 280.11 15.536C279.854 14.864 279.438 14.352 278.862 14C278.318 13.648 277.598 13.472 276.702 13.472C276.062 13.472 275.422 13.568 274.782 13.76C274.142 13.92 273.614 14.208 273.198 14.624C274.094 14.944 274.782 15.44 275.262 16.112C275.774 16.752 276.03 17.488 276.03 18.32C276.03 19.408 275.646 20.272 274.878 20.912C274.142 21.552 273.262 21.872 272.238 21.872C271.086 21.872 270.206 21.52 269.598 20.816C269.022 20.08 268.734 19.2 268.734 18.176C268.734 17.248 268.958 16.48 269.406 15.872C269.886 15.264 270.542 14.688 271.374 14.144C272.27 13.632 273.342 13.232 274.59 12.944C275.87 12.656 277.246 12.512 278.718 12.512C280.19 12.512 281.518 12.672 282.702 12.992C283.886 13.28 284.878 13.824 285.678 14.624C286.414 15.36 286.894 16.272 287.118 17.36C287.342 18.416 287.454 19.76 287.454 21.392V34.448C287.454 35.248 287.534 35.808 287.694 36.128C287.854 36.416 288.126 36.56 288.51 36.56C288.798 36.56 289.07 36.48 289.326 36.32C289.614 36.16 289.918 35.968 290.238 35.744L290.718 36.56C290.046 37.136 289.262 37.584 288.366 37.904C287.502 38.192 286.526 38.336 285.438 38.336C284.254 38.336 283.31 38.176 282.606 37.856C281.902 37.504 281.39 37.04 281.07 36.464C280.782 35.888 280.638 35.216 280.638 34.448C279.87 35.664 278.942 36.624 277.854 37.328C276.766 38 275.438 38.336 273.87 38.336ZM277.278 35.264C277.918 35.264 278.494 35.12 279.006 34.832C279.55 34.512 280.062 34 280.542 33.296V23.456C280.254 23.936 279.854 24.368 279.342 24.752C278.83 25.136 278.286 25.536 277.71 25.952C277.134 26.336 276.574 26.768 276.03 27.248C275.518 27.728 275.102 28.32 274.782 29.024C274.462 29.728 274.302 30.576 274.302 31.568C274.302 32.816 274.574 33.744 275.118 34.352C275.662 34.96 276.382 35.264 277.278 35.264ZM308.602 12.512C309.626 12.512 310.458 12.736 311.098 13.184C311.738 13.6 312.202 14.144 312.49 14.816C312.81 15.488 312.97 16.192 312.97 16.928C312.97 18.112 312.618 19.088 311.914 19.856C311.242 20.592 310.346 20.96 309.226 20.96C308.106 20.96 307.226 20.688 306.586 20.144C305.978 19.568 305.674 18.816 305.674 17.888C305.674 16.992 305.866 16.256 306.25 15.68C306.666 15.072 307.178 14.56 307.786 14.144C307.338 14.016 306.89 14.032 306.442 14.192C305.834 14.288 305.258 14.544 304.714 14.96C304.17 15.344 303.706 15.84 303.322 16.448C302.938 17.024 302.634 17.664 302.41 18.368C302.186 19.04 302.074 19.696 302.074 20.336V33.056C302.074 34.592 302.442 35.632 303.178 36.176C303.946 36.72 305.082 36.992 306.586 36.992V38C305.85 37.968 304.778 37.936 303.37 37.904C301.962 37.84 300.49 37.808 298.954 37.808C297.674 37.808 296.378 37.84 295.066 37.904C293.754 37.936 292.762 37.968 292.09 38V36.992C293.21 36.992 293.994 36.752 294.442 36.272C294.922 35.792 295.162 34.88 295.162 33.536V18.416C295.162 16.976 294.938 15.92 294.49 15.248C294.074 14.544 293.274 14.192 292.09 14.192V13.184C293.114 13.28 294.106 13.328 295.066 13.328C296.41 13.328 297.658 13.28 298.81 13.184C299.994 13.056 301.082 12.88 302.074 12.656V17.12C302.458 16.256 302.97 15.472 303.609 14.768C304.25 14.064 304.986 13.52 305.818 13.136C306.65 12.72 307.578 12.512 308.602 12.512ZM323.069 0.415998V33.536C323.069 34.88 323.293 35.792 323.741 36.272C324.221 36.752 325.021 36.992 326.141 36.992V38C325.533 37.968 324.621 37.936 323.405 37.904C322.189 37.84 320.957 37.808 319.709 37.808C318.461 37.808 317.197 37.84 315.917 37.904C314.669 37.936 313.725 37.968 313.085 38V36.992C314.205 36.992 314.989 36.752 315.437 36.272C315.917 35.792 316.157 34.88 316.157 33.536V6.176C316.157 4.736 315.933 3.68 315.485 3.008C315.069 2.304 314.269 1.952 313.085 1.952V0.943999C314.109 1.04 315.101 1.088 316.061 1.088C317.373 1.088 318.621 1.04 319.805 0.943999C320.989 0.815999 322.077 0.639998 323.069 0.415998ZM340.099 12.512C342.915 12.512 345.123 13.344 346.723 15.008C348.323 16.672 349.123 19.392 349.123 23.168H333.331L333.235 22.256H343.075C343.107 20.688 343.011 19.248 342.787 17.936C342.563 16.592 342.211 15.52 341.731 14.72C341.251 13.92 340.611 13.52 339.811 13.52C338.691 13.52 337.731 14.224 336.931 15.632C336.163 17.04 335.699 19.376 335.539 22.64L335.683 22.928C335.651 23.312 335.619 23.712 335.587 24.128C335.587 24.544 335.587 24.976 335.587 25.424C335.587 27.632 335.891 29.424 336.499 30.8C337.139 32.176 337.939 33.184 338.898 33.824C339.859 34.432 340.835 34.736 341.827 34.736C342.499 34.736 343.187 34.64 343.891 34.448C344.627 34.224 345.363 33.84 346.099 33.296C346.835 32.72 347.523 31.92 348.163 30.896L349.027 31.184C348.643 32.4 348.035 33.584 347.203 34.736C346.371 35.888 345.315 36.832 344.035 37.568C342.755 38.304 341.219 38.672 339.427 38.672C337.251 38.672 335.331 38.208 333.667 37.28C332.003 36.352 330.691 34.944 329.73 33.056C328.803 31.168 328.339 28.768 328.339 25.856C328.339 22.88 328.835 20.4 329.827 18.416C330.851 16.432 332.243 14.96 334.003 14C335.795 13.008 337.827 12.512 340.099 12.512ZM374.812 13.184V14.144C374.204 14.304 373.628 14.688 373.084 15.296C372.54 15.872 372.012 16.864 371.5 18.272L364.732 37.28L362.956 40.64L352.492 16.88C351.948 15.632 351.404 14.88 350.86 14.624C350.348 14.336 349.899 14.192 349.515 14.192V13.184C350.572 13.28 351.66 13.36 352.78 13.424C353.932 13.456 355.036 13.472 356.092 13.472C357.404 13.472 358.604 13.44 359.692 13.376C360.78 13.312 361.804 13.248 362.764 13.184V14.192C362.124 14.192 361.516 14.24 360.94 14.336C360.396 14.4 360.012 14.624 359.788 15.008C359.596 15.36 359.692 15.984 360.076 16.88L366.124 31.472L365.692 31.76L369.244 21.824C369.852 20.096 370.108 18.688 370.012 17.6C369.916 16.48 369.564 15.648 368.956 15.104C368.348 14.528 367.516 14.208 366.46 14.144V13.184C366.972 13.216 367.5 13.248 368.044 13.28C368.588 13.28 369.132 13.296 369.676 13.328C370.22 13.328 370.7 13.328 371.116 13.328C371.756 13.328 372.428 13.312 373.132 13.28C373.836 13.248 374.396 13.216 374.812 13.184ZM364.732 37.28L362.908 42.416C362.588 43.216 362.252 43.888 361.9 44.432C361.58 45.008 361.212 45.472 360.796 45.824C360.348 46.208 359.772 46.496 359.068 46.688C358.364 46.912 357.548 47.024 356.62 47.024C355.852 47.024 355.052 46.896 354.22 46.64C353.42 46.384 352.748 45.968 352.204 45.392C351.66 44.816 351.388 44.08 351.388 43.184C351.388 42.192 351.74 41.392 352.444 40.784C353.148 40.208 354.076 39.92 355.228 39.92C356.284 39.92 357.148 40.176 357.82 40.688C358.492 41.2 358.828 41.952 358.828 42.944C358.828 43.584 358.62 44.192 358.204 44.768C357.82 45.344 357.228 45.776 356.428 46.064C356.588 46.096 356.78 46.112 357.004 46.112C357.228 46.112 357.404 46.112 357.532 46.112C358.492 46.112 359.34 45.808 360.076 45.2C360.812 44.592 361.42 43.632 361.9 42.32L363.58 37.376L364.732 37.28Z" fill="#141414"/>
</svg>
